<svg width="24" height="21" viewBox="0 0 24 21" fill="none" xmlns="http://www.w3.org/2000/svg">
<path fill-rule="evenodd" clip-rule="evenodd" d="M21.9999 3.99994H17.8738L16.5789 0.663205C16.3768 0.255795 15.9606 -0.00146771 15.5057 -2.86619e-06H8.49426C8.02679 0.00164508 7.60254 0.273557 7.40588 0.697629L6.12598 3.99994H2.00006C0.895935 4.00122 0.00128174 4.89605 0 6V18.8C0.00128174 19.9041 0.895935 20.7988 2.00006 20.8H21.9999C23.1041 20.7988 23.9987 19.9041 24 18.8V6C23.9987 4.89605 23.1041 4.00122 21.9999 3.99994ZM8.13666 1.02099C8.20404 0.885312 8.34265 0.799619 8.49426 0.799985H15.5057C15.6447 0.797421 15.7749 0.868283 15.848 0.986753L17.016 3.99994H6.98401L8.13666 1.02099ZM21.9999 20.0001C22.6624 19.9993 23.1993 19.4625 23.2 18.8V6C23.1993 5.33752 22.6624 4.80066 21.9999 4.79992H2.00006C1.33759 4.80066 0.80072 5.33752 0.799988 6V18.8C0.80072 19.4625 1.33759 19.9993 2.00006 20.0001H21.9999Z" fill="#6F787E"/>
<path fill-rule="evenodd" clip-rule="evenodd" d="M5.59985 12.4001C5.59985 8.86542 8.46527 6 11.9999 6C15.533 6.00403 18.396 8.86707 18.4 12.4001C18.4 15.9346 15.5346 18.8 11.9999 18.8C8.46527 18.8 5.59985 15.9346 5.59985 12.4001ZM6.40002 12.4001C6.40002 15.4927 8.9071 18 11.9999 18C15.0913 17.9965 17.5964 15.4913 17.5999 12.4001C17.5999 9.30725 15.0928 6.79999 11.9999 6.79999C8.9071 6.79999 6.40002 9.30725 6.40002 12.4001Z" fill="#6F787E"/>
<path fill-rule="evenodd" clip-rule="evenodd" d="M8 12.4001C8 10.1909 9.79077 8.39996 11.9999 8.39996C14.208 8.40253 15.9975 10.1918 15.9999 12.4001C15.9999 14.6091 14.2091 16.4 11.9999 16.4C9.79077 16.4 8 14.6091 8 12.4001ZM8.79999 12.4001C8.79999 14.1672 10.2326 15.6 11.9999 15.6C13.7664 15.598 15.1979 14.1665 15.1999 12.4001C15.1999 10.6328 13.7673 9.19995 11.9999 9.19995C10.2326 9.19995 8.79999 10.6328 8.79999 12.4001Z" fill="#57A9DD"/>
<path d="M2.00018 5.59991C1.77917 5.59991 1.6001 5.77917 1.6001 6V6.40009C1.6001 6.62091 1.77917 6.79999 2.00018 6.79999C2.22101 6.79999 2.40009 6.62091 2.40009 6.40009V6C2.40009 5.77917 2.22101 5.59991 2.00018 5.59991Z" fill="#6F787E"/>
<path d="M2.00018 7.59998C1.77917 7.59998 1.6001 7.77905 1.6001 8.00006V18.8C1.6001 19.021 1.77917 19.2001 2.00018 19.2001C2.22101 19.2001 2.40009 19.021 2.40009 18.8V8.00006C2.40009 7.77905 2.22101 7.59998 2.00018 7.59998Z" fill="#6F787E"/>
</svg>
